# Aspose.3D Wavefront OBJ Exporter
# Copyright 2004-2020 Aspose Pty Ltd.
# File created: 10/21/2020 1:45:36 AM


#
# object obj_47360282
#

v -0.00442589959129691 -0.01165223866701126 0.00075321272015571
v -0.00060232076793909 -0.01165341585874557 0.00053905323147773
v -0.00453509530052542 -0.01162800937891006 0.00305436737835407
v -0.00625486858189106 2.4087727069854736E-05 0.00267166085541248
v -0.00578399188816547 0.00244564563035964 0.00073540583252906
v -0.00609304197132587 -0.0043032094836235 0.00091617181897163
v -0.00498731574043631 -0.01093200594186782 0.00056162849068641
v -0.00523330410942435 -0.01120675355195999 0.00252518244087696
v -0.00613214261829853 -0.00641112774610519 0.00255726464092731
v -0.00456042774021625 0.0072566345334053 0.00112724676728248
v -0.00500221736729145 0.00676750391721725 0.00088899210095405
v -0.00520970113575458 0.00681013613939285 0.00297057814896106
v -0.00560553558170795 -0.00687488168478012 0.0507437139749527
v -0.0050369668751955 -0.00755944103002548 0.05147701501846313
v -0.00561578758060932 0.00230675190687179 0.05086416006088257
v -0.00497110374271869 0.0031563863158226 0.05148953199386597
v -0.00397201022133231 -0.00807014852762222 0.05141812562942505
v -0.00412376411259174 0.00363712757825851 0.05144022405147552
v 0.00155787076801061 -0.00999852269887924 0.04917660355567932
v -0.00191702041774988 -0.01006267219781875 0.04785855114459991
v 0.00248257629573345 -0.01009196788072586 0.04846104979515076
v 0.0021772813051939 0.00569669157266616 0.04883557558059692
v -0.00212831888347864 -0.01141638308763504 0.00017032399773597717
v -0.00061960611492395 -0.01140735298395156 0.00016472116112709045
v -0.00529779680073261 0.00352602452039718 0.00050871446728706
v -0.0055715013295412 0.00114417821168899 0.00045776739716529846
v -0.00465978868305683 0.00676897913217544 0.00057708099484443
v -0.00425674207508564 0.00705344229936599 0.00058173015713691
v -0.00503064878284931 -0.00727231055498123 0.0002719499170780182
v -0.0043445392511785 -0.01105158776044845 0.00018680468201637268
v -0.00061126239597797 0.00722762197256088 0.00049071386456489
v 0.00897286646068096 0.00516774505376815 0.03113089501857757
v -0.00658758170902729 -0.00630297511816024 0.00647086091339588
v -0.00243015773594379 0.00547900050878524 0.04792368412017822
v -0.00083048827946186 0.00708093494176864 0.00598463602364063
v -0.00418766029179096 0.00710587948560714 0.00610481388866901
v -0.00646509416401386 0.00214079767465591 0.00633955188095569
v -0.00571860512718558 -0.01111384481191635 0.00817841477692127
v -0.00588686950504779 0.00641808658838272 0.0082217026501894
v -0.0055947471410036 0.0067184641957283 0.00643451698124408
v -0.00578184612095356 0.00629251450300216 0.01387652941048145
v -0.00506635196506977 0.00693071633577346 0.00871950574219226
v -0.0043631955049932 -0.008449487388134 0.04736748337745667
v -0.00425024516880512 0.00413418561220169 0.04747435450553894
v -0.00198854599148035 -0.01161416620016098 0.0039468128234148
v -0.00675179250538349 0.0014229342341423 0.01216679997742176
v 0.01668719947338104 -0.00523670669645071 0.00023296847939491272
v 0.01669000089168548 0.00066610425710678 0.00036183372139930725
v 0.01502577774226665 0.00231013447046279 0.00040410831570625305
v -0.00567890843376517 -0.01072565466165542 0.0140827614814043
v 0.0143201183527708 -0.00055491179227828 0.01443514414131641
v -0.00512667139992117 -0.01147139817476272 0.0062358696013689
v -0.00671990402042865 0.00055689364671707 0.0141689945012331
v 0.0092927049845457 -0.00960408803075552 0.02997523546218872
v 0.01451788656413555 -0.00433071609586477 0.01327261514961719
v 0.01319227926433086 -0.00978081580251455 0.00014718249440193176
v 0.01587371528148651 -0.00620330031961202 0.0002149827778339386
v 0.01622466742992401 -0.00570451375097036 0.00022453442215919495
v -0.00658489950001239 -0.00677072256803512 0.0139362383633852
v -0.00677813775837421 -0.00514166802167892 0.01190379448235035
v 0.01472119800746441 0.00244037061929702 0.0004081316292285919
v -0.00687702186405658 -0.00361358374357223 0.00833639688789844
v 0.01293055526912212 -0.00990392919629812 0.00014549866318702698
v -0.00397499045357108 -0.01136621087789535 0.00017850473523139954
v -0.00590486964210867 -0.01063426584005355 0.01207266934216022
v -0.00558586604893207 -0.00301443785429 0.0003670342266559601
v 0.00784157030284404 0.00574607402086257 0.03331172466278076
v 0.00707302754744887 0.00589620321989059 0.02891162037849426
v 0.00785939209163188 -0.01017277687788009 0.03342534601688385
v 0.0075914692133665 -0.01030080765485763 0.02928169816732406
v -0.00072838459163904 -0.01157931238412857 0.00359729118645191
# 71 vertices

vn 0.000282601045910269 -0.99994444847106928 0.01054198388010263
vn -0.98121541738510128 0.03987722471356392 -0.18874919414520264
vn -0.97235912084579472 -0.18126352131366728 -0.14717745780944824
vn -0.96510475873947136 -0.14948613941669464 -0.21500365436077116
vn -0.7512245774269104 -0.634213387966156 -0.18285298347473144
vn -0.71824413537979128 0.69048905372619632 -0.0857335552573204
vn -0.7942377924919128 -0.00885665230453014 0.60754257440567016
vn 0.05448983982205391 -0.00150129164103418 0.99851322174072272
vn 0.0587293766438961 -0.00112306792289018 0.99827331304550176
vn -0.69861191511154176 0.00345816160552203 0.71549248695373536
vn -0.02073661051690578 -0.99445819854736336 0.10306823253631592
vn 0.61153483390808104 -0.00694308243691921 0.79118716716766352
vn 0.00296088517643511 -0.83556419610977168 -0.54938477277755736
vn -0.56596803665161136 0.08258255571126938 -0.82028055191040032
vn -0.66647237539291384 0.14653441309928894 -0.73098725080490112
vn -0.66643482446670536 0.14652320742607116 -0.73102360963821408
vn -0.48514351248741152 0.6960225701332092 -0.52932810783386232
vn -0.48514124751091 0.69603312015533448 -0.52931642532348632
vn -0.51257640123367312 -0.07378263026475906 -0.85546571016311648
vn -0.05357922613620758 0.92563521862030032 -0.37460461258888248
vn 0.9336439967155456 0.00955931842327117 0.3580748438835144
vn -0.99108660221099856 -0.06990562379360199 -0.11340442299842834
vn 0.00880271755158901 0.99921971559524544 0.03850266709923744
vn -0.98830884695053104 0.10050741583108902 -0.11464722454547882
vn -0.97551190853118896 -0.20473386347293852 -0.0803779810667038
vn -0.95089453458786016 0.29264992475509644 -0.10077523440122604
vn -0.93386310338974 0.3448704481124878 -0.09467951208353042
vn -0.62507480382919312 0.78002858161926272 0.02893044799566269
vn -0.5049534440040588 0.86236757040023808 0.03666340932250023
vn -0.38733255863189696 0.91997826099395744 0.06011166051030159
vn -0.0740232840180397 0.99637711048126224 0.04187298938632011
vn -0.4233941435813904 -0.89729183912277216 0.12491925060749054
vn -0.60488486289978024 0.79243618249893184 0.07848068326711655
vn -0.00694557093083858 -0.99935191869735712 0.03532053157687187
vn -0.14257372915744782 -0.89648407697677616 0.41951024532318112
vn -0.97752237319946288 0.18026103079319 -0.10934306681156158
vn -0.98205512762069696 0.18698786199092864 0.02455868758261204
vn 0.00082996219862252 0.02182555943727493 -0.99976140260696416
vn 0.00373624381609261 0.02948479726910591 -0.9995582103729248
vn -0.55977487564086912 -0.8249143958091736 0.07853896170854568
vn -0.40245261788368224 -0.9132875204086304 0.06275109946727753
vn 0.70186531543731688 0.7086248993873596 0.07235883921384811
vn 0.92661482095718384 0.327654629945755 0.18446545302867888
vn -0.36545068025588992 -0.92891937494277952 0.05962052196264267
vn -0.05832592397928238 -0.99756407737731936 0.03826021403074264
vn -0.9886533617973328 0.14708177745342254 -0.03052223473787307
vn -0.60756665468215944 -0.79330468177795408 -0.03911885619163513
vn -0.99954432249069216 -0.00151146866846829 0.0301472507417202
vn 0.91989016532897952 -0.34978994727134704 0.1773388385772705
vn -0.003740219399333 0.02175056748092174 -0.99975645542144768
vn -0.48418873548507688 0.86613267660140992 0.12399794161319732
vn -0.00393013516440987 0.02191077545285225 -0.99975228309631344
vn -0.001114685786888 0.01912778243422508 -0.99981635808944704
vn -0.99185454845428464 -0.12714847922325134 -0.00761017249897122
vn 0.78718835115432736 -0.60744524002075192 0.10651218891143798
vn 0.01574935391545295 0.06764900684356689 -0.99758481979370112
vn -0.99515330791473392 -0.09731917828321456 -0.01410195231437683
vn -0.9921932220458984 -0.02158011496067047 -0.12282965332269668
vn -0.00071445939829573 0.01964872330427169 -0.99980664253234864
vn -0.00086663803085684 0.01946198567748069 -0.99981027841568
vn -0.99749821424484256 0.0568041019141674 -0.04207878559827804
vn -0.99572408199310304 0.04288650304079056 -0.08181951940059662
vn -0.00340177002362906 0.01745868846774101 -0.99984180927276608
vn -0.00395371997728943 0.01750355027616024 -0.9998390674591064
vn -0.98226016759872432 -0.1859702616930008 -0.02407976239919662
vn -0.00707332463935017 0.01806745491921901 -0.99981170892715456
vn -0.01529806107282638 0.01974518224596977 -0.9996880292892456
vn -0.0166405476629734 0.02015389502048492 -0.99965840578079216
vn -0.02019313909113407 0.02187819965183735 -0.99955672025680544
vn -0.62105911970138552 0.77983194589614864 0.07840827107429504
vn -0.02279270254075527 0.02399718388915062 -0.99945211410522464
vn -0.02424673922359943 0.02583854459226131 -0.9993720650672912
vn -0.02756458148360252 0.05536776781082153 -0.9980854392051696
vn -0.80040615797042848 -0.59600967168807984 0.06420525908470154
vn -0.99957734346389776 0.00285246153362095 0.02892898023128509
vn 0.05081287771463394 0.99829626083374016 0.02868195995688438
vn -0.58690679073333744 -0.80585879087448128 0.07830825448036194
vn -0.72396343946456912 -0.68801653385162352 0.05010237544775009
vn 0.06723447889089584 0.99735248088836672 0.02770492620766163
vn 0.13180646300315856 0.9912165999412536 0.0107972789555788
vn -0.8046602010726928 -0.59031766653060912 0.06361586600542068
vn -0.98235541582107536 -0.18526113033294676 0.02561400644481182
vn 0.29767340421676636 0.95399653911590576 -0.03579193726181984
vn 0.3930246531963348 0.91947138309478752 -0.01020064763724803
vn -0.99600207805633552 -0.08538345247507095 0.02625974640250206
vn 0.37659505009651184 0.00313295400701463 0.92637264728546144
vn 0.47180613875389096 0.8816342949867248 0.01094929222017526
vn 0.8267009854316712 0.47398775815963744 0.30315175652503968
vn -0.99915486574172976 0.02946469001471996 0.02865836769342422
vn 0.00848761387169361 0.99952471256256096 0.02963699027895927
vn 0.51301044225692752 -0.85534596443176272 0.07213633507490158
vn 0.89634573459625248 -0.30458074808120728 0.32217219471931456
vn -0.00383160705678164 0.02181855961680412 -0.99975466728210448
vn 0.4246486723423004 -0.90353626012802128 0.05740866810083389
vn 0.33084124326705932 0.94333916902542112 -0.02560006827116012
vn 0.09133221209049224 -0.83019661903381344 -0.54993820190429688
vn -0.00384359480813145 0.02185915969312191 -0.99975371360778816
vn 0.17672401666641236 -0.98407739400863648 0.01897922158241272
vn 0.12849052250385284 -0.99165999889373776 0.01003748551011085
vn -0.02613715082406997 -0.8866100907325744 -0.4617785215377808
vn -0.02613415196537971 -0.88661736249923712 -0.46176451444625856
vn -0.49244382977485656 -0.56088525056838992 -0.66551244258880616
vn -0.49244055151939392 -0.5608510375022888 -0.6655437350273132
vn -0.64880061149597168 -0.06767617911100388 -0.75794309377670288
vn -0.75400412082672112 0.01693141460418701 -0.65665149688720704
vn -0.64874327182769776 -0.06767307221889496 -0.7579925060272216
vn -0.75407725572586064 0.0169454701244831 -0.65656709671020504
vn -0.66592115163803104 0.74404108524322512 -0.0543317049741745
vn -0.41482859849929808 0.90982794761657712 0.01141392160207033
vn -0.08890326321125031 0.99536007642745968 0.03680437803268432
vn 0.98610872030258176 0.00050973455654457 0.16610054671764374
vn -0.12432149797677994 0.90232485532760624 0.41273987293243408
vn 0.95201033353805536 -0.00333055923692882 0.30604782700538636
vn 0.03609577938914299 -0.9988818168640136 0.03053202293813228
vn 0.06456294655799866 -0.9975080490112304 0.02844901196658611
vn 0.06945636123418808 -0.99721884727478032 0.02702603116631508
vn 0.07310039550065994 -0.99698364734649664 0.026078712195158
vn 0.03474409505724907 -0.99906736612319952 0.02563988789916038
vn 0.00122490827925503 -0.99992710351943968 0.01201545260846614
vn -0.26910722255706788 -0.96310663223266608 -0.00262979604303836
vn -0.55393981933593752 -0.83142578601837152 -0.04337810352444648
vn 0.93838667869567872 -0.00671367580071091 0.34552213549613952
vn -0.05428129062056541 0.99787485599517824 0.0360451303422451
vn -0.97719466686248784 -0.18242722749710084 -0.1086781695485115
vn -0.56397312879562376 -0.81536465883255008 0.13082307577133178
vn -0.01149187330156564 -0.99930977821350096 0.03532646596431732
vn -0.97748506069183344 0.18068836629390716 -0.10897018760442734
vn -0.81749862432479856 0.57221299409866336 0.06533152610063553
vn -0.98196595907211296 0.1877257227897644 0.02240607514977455
vn -0.99954533576965328 -0.00175002496689558 0.03009882383048534
vn -0.6087646484375 0.78456425666809088 0.11774742603302002
vn -0.9960241317749024 -0.00111122999805957 -0.08907715976238251
vn -0.9856384992599488 -0.16856063902378082 -0.01020716968923807
vn -0.99984389543533328 0.00331712723709642 0.01735908538103103
vn 0.38059440255165104 0.00507249077782034 0.92472809553146368
vn 0.01172031927853822 0.99956256151199344 0.02715575695037842
vn 0.98638874292373664 -0.00405651610344648 0.16438031196594238
vn 0.957071840763092 -0.03832881525158882 0.28730541467666624
# 138 vertex normals

g obj_47360282
s 1
f 1//1 2//1 3//1
f 4//2 5//2 6//2
f 7//3 8//3 9//3
f 7//4 9//4 6//4
f 8//5 7//5 1//5
f 10//6 11//6 12//6
f 13//7 14//7 15//7
f 16//8 14//8 17//8
f 16//9 17//9 18//9
f 14//10 16//10 15//10
f 19//11 20//11 21//11
f 22//12 19//12 21//12
f 2//13 23//13 24//13
f 5//14 25//14 26//14
f 5//15 11//15 27//15
f 27//16 25//16 5//16
f 11//17 10//17 28//17
f 28//18 27//18 11//18
f 7//19 29//19 30//19
f 10//20 31//20 28//20
f 21//21 32//21 22//21
f 9//22 33//22 6//22
f 34//23 35//23 36//23
f 4//24 37//24 5//24
f 33//25 8//25 38//25
f 39//26 12//26 11//26
f 39//27 40//27 12//27
f 39//28 41//28 40//28
f 41//29 42//29 40//29
f 41//30 34//30 42//30
f 34//31 36//31 42//31
f 43//32 17//32 14//32
f 41//33 44//33 34//33
f 45//34 20//34 3//34
f 17//35 20//35 19//35
f 11//36 37//36 39//36
f 15//37 41//37 46//37
f 47//38 31//38 48//38
f 31//39 49//39 48//39
f 43//40 50//40 20//40
f 50//41 38//41 20//41
f 49//42 32//42 48//42
f 32//43 51//43 48//43
f 38//44 52//44 20//44
f 52//45 3//45 20//45
f 46//46 39//46 37//46
f 38//47 8//47 52//47
f 53//48 13//48 15//48
f 54//49 47//49 55//49
f 56//50 57//50 47//50
f 18//51 44//51 16//51
f 57//52 58//52 47//52
f 58//53 31//53 47//53
f 59//54 60//54 33//54
f 54//55 56//55 47//55
f 61//56 49//56 31//56
f 60//57 62//57 33//57
f 4//58 33//58 62//58
f 58//59 57//59 31//59
f 57//60 63//60 31//60
f 46//61 37//61 62//61
f 37//62 4//62 62//62
f 63//63 23//63 31//63
f 23//64 64//64 31//64
f 65//65 33//65 38//65
f 64//66 30//66 31//66
f 30//67 29//67 31//67
f 29//68 66//68 31//68
f 66//69 26//69 31//69
f 16//70 44//70 41//70
f 26//71 25//71 31//71
f 25//72 27//72 31//72
f 27//73 28//73 31//73
f 13//74 50//74 14//74
f 60//75 46//75 62//75
f 35//76 22//76 31//76
f 50//77 43//77 14//77
f 65//78 38//78 50//78
f 22//79 67//79 31//79
f 67//80 68//80 31//80
f 13//81 65//81 50//81
f 13//82 59//82 65//82
f 68//83 61//83 31//83
f 61//84 67//84 49//84
f 13//85 60//85 59//85
f 19//86 18//86 17//86
f 67//87 32//87 49//87
f 67//88 22//88 32//88
f 15//89 46//89 53//89
f 35//90 10//90 36//90
f 69//91 56//91 54//91
f 21//92 69//92 54//92
f 63//93 57//93 56//93
f 69//94 63//94 56//94
f 68//95 67//95 61//95
f 2//96 24//96 63//96
f 24//97 23//97 63//97
f 69//98 70//98 63//98
f 70//99 2//99 63//99
f 2//100 1//100 23//100
f 1//101 64//101 23//101
f 1//102 7//102 64//102
f 7//103 30//103 64//103
f 7//104 66//104 29//104
f 6//105 26//105 66//105
f 7//106 6//106 66//106
f 6//107 5//107 26//107
f 12//108 40//108 10//108
f 40//109 42//109 10//109
f 42//110 36//110 10//110
f 55//111 48//111 51//111
f 34//112 18//112 22//112
f 54//113 51//113 32//113
f 45//114 71//114 21//114
f 71//115 69//115 21//115
f 71//116 2//116 69//116
f 2//117 70//117 69//117
f 71//118 45//118 2//118
f 45//119 3//119 2//119
f 3//120 52//120 1//120
f 52//121 8//121 1//121
f 21//122 54//122 32//122
f 34//123 22//123 35//123
f 33//124 9//124 8//124
f 43//125 20//125 17//125
f 45//126 21//126 20//126
f 11//127 5//127 37//127
f 15//128 16//128 41//128
f 46//129 41//129 39//129
f 53//130 60//130 13//130
f 18//131 34//131 44//131
f 4//132 6//132 33//132
f 65//133 59//133 33//133
f 60//134 53//134 46//134
f 19//135 22//135 18//135
f 35//136 31//136 10//136
f 55//137 47//137 48//137
f 54//138 55//138 51//138
#138 polygons

