# Aspose.3D Wavefront OBJ Exporter
# Copyright 2004-2020 Aspose Pty Ltd.
# File created: 10/21/2020 1:45:16 AM


#
# object obj_32652946
#

v 0.02418657578527927 0.00404870137572288 0.0178747046738863
v 0.02475019544363022 -0.00926530733704567 0.01922461576759815
v 0.02371527999639511 -0.00996208563446998 0.01751542277634143
v 0.0248319748789072 0.00367980822920799 0.01961261220276355
v 0.02491947449743747 -0.00777209177613258 0.02123521454632282
v 0.02491318620741367 0.00237476639449596 0.0212817657738924
v 0.02088611759245395 -0.00820815935730934 0.04016248881816864
v 0.02132570184767246 0.0025914292782545 0.03829924762248993
v 0.01823380030691623 0.00277203135192394 0.04920308291912079
v 0.01750781573355198 -0.00804829876869916 0.05105940997600555
v 0.01815828122198581 0.00464915856719017 0.04494170844554901
v 0.01838471926748752 -0.00994873326271772 0.04454843699932098
v 0.02214526571333408 0.00418001040816307 0.01602634973824024
v 0.02372976578772068 0.00469141826033592 0.01797226257622242
v -0.01200721226632595 -0.00779474154114723 0.05884584784507751
v -0.01087287627160549 -0.01208043470978737 0.06143400073051453
v -0.01194003783166408 -0.00651252642273902 0.06184795498847961
v -0.0124236699193716 -0.0013323463499546 0.05925799906253815
v -0.01206294260919094 0.00073587521910667 0.06166756153106689
v -0.01137874089181423 0.00625115213915705 0.05916376411914825
v -0.01096430979669094 0.00642209826037287 0.06180226802825928
v -0.01060477457940578 0.0068076211027801 0.05914530158042908
v -0.0101455207914114 0.00678795157000422 0.0620323121547699
v -0.00688425218686461 -0.01213455572724342 0.06213346123695374
v -0.0101309772580862 -0.01175058260560035 0.06264227628707886
v -0.00585827743634581 -0.01480353251099586 0.00526285544037818
v -0.00341025460511446 -0.01486432924866676 0.00246741250157356
v -0.0013189660385251 -0.01478016749024391 0.00529435649514198
v 0.00091841345420107 -0.01481628790497779 0.00272898748517036
v -0.00524041568860411 -0.01454246416687965 -0.00410693511366844
v -0.00176689494401216 -0.01483834162354469 -0.00381701812148094
v -0.0079179760068655 -0.01487207785248756 -0.00192281231284141
v -8.580629946663976E-05 -0.00268221250735223 -0.00418179854750633
v 0.00117387808859348 -0.0096823014318943 -0.00303651019930839
v -0.00316057121381163 -0.0096823014318943 -0.00537141785025596
v -0.00452098809182643 -0.00268221274018287 -0.0053279809653759
v -0.01264772377908229 -0.00621259585022926 0.05564068257808685
v -0.01286754570901394 -0.0072101391851902 0.04949462413787842
v -0.01184908114373684 -0.01160347834229469 0.05309627950191498
v -0.01157585345208644 0.00660669384524226 0.03474844992160797
v -0.01173416338860988 0.00662588654085993 0.03759406507015228
v -0.01130900345742702 0.00666814623400569 0.031548872590065
v -0.01180354319512844 0.0067315655760467 0.04117465019226074
v -0.01201055012643337 0.0063416319899261 0.04376198351383209
v -0.01200315915048122 0.00643938360735774 0.04702116549015045
v -0.01180628500878811 0.00639414368197321 0.05332817137241364
v -0.01130125485360622 0.00678735552355647 0.04988431930541992
v -0.01143614016473293 0.00678580580279231 0.04690295457839966
v -0.01218036375939846 0.00608455715700984 0.04941286146640778
v -0.01161274872720241 0.00639521656557917 0.05573944747447968
v -0.01295915804803371 0.00134706124663352 0.04093123972415924
v -0.01279637776315212 -0.00493133440613746 0.03469917178153991
v -0.01299903355538845 -0.00684821978211402 0.04113245010375976
v -0.01308647356927394 -0.00611710920929908 0.04712136089801788
v 0.01061626709997654 0.00262802466750144 0.06891554594039917
v 0.00674846209585666 0.00231736619025468 0.07079866528511047
v 0.01023473776876926 0.00023036915808916092 0.07036507129669189
v -0.01319298706948757 -0.0002273358404636383 0.04871633648872375
v -0.01289782486855983 0.00170868262648582 0.04381121695041656
v -0.01259217225015163 0.00114374980330467 0.05553445219993591
v -0.01292077265679836 -3.624334931373596E-05 0.05336631834506989
v 0.00118508469313383 -0.01488495245575904 -0.00062578544020652
v -0.0069947000592947 0.00674408255144953 0.02842955291271209
v -0.00892738066613674 0.00456773862242698 -0.00301044806838035
v -0.01097313128411769 0.00671332655474543 0.02876120805740356
v 0.02106296457350254 -0.01077664084732532 0.02028206177055835
v 0.00859578885138034 -0.00996876042336225 0.07054352760314941
v 0.0077607873827219 -0.01078832522034645 0.06719997525215149
v 0.00159158743917942 0.00456773862242698 -0.00223542377352714
v 0.02149480022490024 0.00478070601820945 0.01626220531761646
v 0.02108361758291721 0.00540440855547785 0.02023914642632007
v 0.00713303126394748 0.00541579304262995 0.06766203045845032
v 0.00806196965277195 0.00473063811659812 0.07043588161468506
v 0.01046713627874851 -0.00568485539406538 0.06926518678665161
v 0.01026728190481662 -0.00771534722298383 0.06945306062698364
v -0.00989625416696071 0.00630425987765193 0.06815394759178162
v -0.00667068921029567 0.00675934134051203 0.068817138671875
v 0.0051638726145029 -0.00768184941262006 0.07041656970977783
v 0.00560411252081394 -0.01078284159302711 0.06745266914367676
v -0.00575528061017394 -0.01022112742066383 0.06734928488731384
v 0.01915487088263034 0.00546115217730402 0.0194812286645174
v -0.00725976191461086 0.0067778187803924 0.03206892311573028
v -0.00678262673318386 0.00677120266482234 0.06202560663223267
v 0.00752588547766208 0.00374567229300737 0.07058396935462952
v -0.0083379503339529 -0.01483238115906715 0.0023416019976139
v -0.00925651751458644 -0.0096823014318943 -0.0024530254304409
v -0.00619522295892238 -0.00545978918671608 0.06788510084152222
v -0.00932762585580349 -0.00967336073517799 0.06514978408813477
v -0.0096841212362051 0.00456773862242698 -0.00168011710047721
v -0.00873664580285549 0.00678282557055354 0.03394275903701782
v -0.00846944004297256 0.00681954203173518 0.04451698064804077
v -0.01179728470742702 -0.01173532381653785 0.0349719226360321
v -0.01161566935479641 -0.01156318560242653 0.03128574788570404
v -0.01107523404061794 -0.01207304373383522 0.05917912721633911
v -0.01171157322824001 -0.0120934285223484 0.04968377947807312
v -0.01177815161645412 -0.01208877936005592 0.04704442620277405
v -0.01185057125985622 -0.01207733526825904 0.04347583651542663
v -0.01019785366952419 0.00456773862242698 0.00081816688179969
v -0.01280448399484157 -0.00668061152100563 0.03779277205467224
v -0.01255032978951931 -0.00442755594849586 0.03166687488555908
v -0.01227090321481227 0.0011904202401638 0.02901811897754669
v -0.01260737143456936 0.00222152099013328 0.03500853478908539
# 102 vertices

vn 0.85812890529632576 -0.01570571213960647 -0.51319396495819088
vn 0.93774563074111936 0.00448516197502613 -0.34729385375976564
vn 0.99670302867889408 -0.00386763433925807 -0.08104357123374939
vn 0.99884968996047968 0.00083888042718172 -0.04794234409928322
vn 0.96207362413406368 0.00788454432040453 0.27267593145370484
vn 0.95501202344894416 -0.01324821729212999 0.29627072811126708
vn 0.81410002708435056 0.53663343191146848 0.22195860743522644
vn 0.81594210863113408 -0.51610207557678224 0.26053237915039064
vn 0.59314870834350584 0.51545423269271848 -0.61845099925994872
vn 0.79108017683029168 0.58790731430053712 -0.16898871958255768
vn -0.97522419691085808 -0.19471943378448488 0.10498704016208648
vn -0.98723238706588752 -0.0127880135551095 0.15877194702625274
vn -0.97267413139343264 0.18459388613700868 0.14081878960132598
vn -0.42400789260864256 0.90266287326812752 0.07359927147626877
vn -0.06552837789058685 -0.95167416334152224 0.30003702640533448
vn 0.00496440334245562 -0.9996472597122192 0.02608826570212841
vn 0.00973160378634929 -0.99969810247421264 0.02256321348249912
vn -0.06401719152927399 -0.97220695018768304 -0.22520095109939576
vn 0.47343823313713072 -0.0585969090461731 -0.87887579202651984
vn 0.24983690679073332 0.05455287545919418 -0.96674996614456176
vn -0.02170145325362682 -0.99868357181549072 0.04647736623883247
vn -0.98240739107131952 -0.17557480931282044 0.06363407522439957
vn -0.68214559555053712 0.72995853424072272 -0.04287193343043327
vn -0.58203017711639408 0.81240260601043696 -0.03525527939200401
vn -0.94743716716766352 0.31873488426208496 -0.02776564471423626
vn -0.91005218029022224 0.41436412930488584 -0.01036401931196451
vn -0.54771763086318968 0.8363444209098816 0.02309615910053253
vn -0.50811886787414552 0.86095833778381344 0.02378842607140541
vn -0.42794811725616456 0.90360587835311888 0.01889133639633655
vn -0.80123823881149296 0.59762775897979736 0.02929750457406044
vn -0.97477293014526368 0.2096600979566574 0.07655402272939682
vn -0.95998364686965936 0.2692822813987732 0.07693193107843399
vn -0.99953365325927728 0.0041206288151443 -0.03025872446596622
vn -0.98356819152832032 -0.18037447333335876 0.007659079041332
vn -0.99465739727020256 -0.09019535779953002 0.05021452903747559
vn 0.3646879494190216 0.4385473132133484 0.82138842344284064
vn -0.98795831203460688 0.15471196174621582 0.00161380530335009
vn -0.98699349164962768 0.16075776517391204 0.00083394884131848
vn -0.98004281520843504 0.19773107767105104 -0.02045575529336929
vn -0.98098051548004144 0.1779169738292694 0.07760677486658096
vn -0.98521173000335696 0.15953987836837768 0.06248966604471207
vn -0.98693710565567024 0.15265192091464996 0.05150297284126282
vn 0.00457991193979978 -0.99998509883880608 -0.00293750944547355
vn 0.05678306892514229 -0.27407363057136536 -0.9600308537483216
vn -0.91924327611923216 0.3935701847076416 -0.00971951521933078
vn -0.9874210953712464 0.15808427333831788 0.0029774906579405
vn 0.6737468242645264 0.0003406869655009359 -0.73896223306655888
vn 0.9157676100730896 -0.355551540851593 0.18695633113384248
vn 0.74624854326248176 -0.64353775978088376 0.17021206021308898
vn 0.45057919621467592 -0.88826006650924688 0.08928720653057098
vn 0.93277448415756224 0.30458939075469972 0.19276179373264312
vn 0.56949996948242184 0.813342809677124 0.11892471462488174
vn 0.77335721254348752 0.60773050785064696 0.1805056184530258
vn -0.97810590267181392 0.20524935424327852 -0.03437018021941185
vn 0.56668788194656376 -0.6279937028884888 -0.53337502479553224
vn 0.64849537611007688 -0.26166278123855592 -0.7148330807685852
vn -0.01339992601424455 0.99757957458496096 -0.06823086738586426
vn 0.36022338271141052 -0.93012267351150512 0.07149066776037216
vn 0.67143529653549192 0.00701202312484383 -0.74103009700775152
vn 0.74033766984939568 -0.6119151711463928 0.27831625938415528
vn 0.3620701730251312 -0.92223018407821648 0.1356339156627655
vn 0.19438578188419344 -0.9793893694877624 0.05486833304166794
vn 0.54109066724777224 0.59288668632507328 -0.59641110897064208
vn 0.25494715571403504 0.92401373386383056 -0.28495728969573976
vn 0.14520363509654998 0.97964233160018928 -0.13862422108650208
vn 0.31185355782508852 0.94784140586853024 0.06590954214334488
vn 0.32135283946990968 0.9387710094451904 0.12426337599754334
vn 0.70350366830825808 0.65469342470169064 0.27651214599609376
vn 0.70271605253219608 0.65561074018478392 0.27634167671203612
vn 0.17247138917446136 0.98371911048889168 0.05050041154026985
vn 0.93034267425537104 0.06961360573768616 0.36002302169799804
vn -0.99987518787384032 0.00449312524870038 -0.01514699589461088
vn 0.92860877513885504 -0.05748115107417107 0.36658087372779848
vn 0.82718557119369504 -0.45204266905784608 0.33379843831062316
vn 0.24130822718143464 -0.96894824504852288 -0.05394091829657555
vn 0.00981174781918525 -0.99972617626190192 0.02124245092272758
vn 0.08347594738006592 -0.99623465538024896 0.02341899462044239
vn -0.15614430606365204 0.98414582014083856 0.08411885797977448
vn 0.09217967092990876 -0.05260439217090607 0.994351863861084
vn 0.6639646887779236 0.04673848301172256 -0.74630177021026608
vn 0.02472976222634315 -0.9723615646362304 0.23216693103313448
vn 0.6236233711242676 -0.08661975711584091 0.77691107988357536
vn -0.99661600589752192 -0.01424883957952261 0.08095348626375198
vn -0.205710306763649 -0.25627312064170836 0.94446146488189696
vn -0.06418827921152115 -0.930018961429596 0.36186271905899048
vn -0.05663847923278809 -0.93671566247940064 0.34547907114028932
vn -0.0064812540076673 -0.96543741226196288 0.26055434346199036
vn 0.02092154510319233 -0.97960990667343136 0.19981694221496584
vn 0.9354889392852784 -0.00214566895738244 0.35334962606430052
vn 0.02733534388244152 0.99762970209121712 -0.06314943730831146
vn 0.06637531518936157 0.9933053851127624 -0.09454484283924102
vn 0.12105796486139298 0.98249852657318112 -0.1415686160326004
vn 0.03987279534339905 0.99884831905364992 -0.02668666094541549
vn 0.04593558982014656 0.99892693758010864 -0.00591413909569382
vn 0.04817169532179832 0.99883890151977536 -0.00054666301002725
vn 0.05035717040300369 0.9987308382987976 0.00091427960433065
vn 0.0992337167263031 0.99464285373687744 0.02895324863493442
vn 0.1116645261645317 0.97281289100646976 0.20289409160614012
vn -0.08114396035671234 0.19123244285583496 0.97818493843078608
vn 0.47926965355873104 -0.52420115470886232 -0.70392727851867672
vn 0.24525384604930876 0.19803641736507416 -0.94901645183563232
vn 0.89537662267684944 -0.04715783894062042 0.44280549883842472
vn 0.04184231907129287 -0.99784499406814576 0.05054224282503128
vn -0.0067037814296782 -0.99994021654129024 0.00864778086543083
vn -0.00688369758427143 -0.9998527765274048 0.01571816764771938
vn -0.59742492437362672 -0.23249690234661104 -0.76748204231262208
vn -0.96185368299484256 -0.25751289725303648 -0.09232944995164872
vn -0.39254659414291384 -0.07059827446937561 -0.91701859235763552
vn -0.44607701897621152 -0.06484155356884003 -0.89264261722564704
vn -0.49422162771224976 -0.02257940731942653 -0.86904269456863408
vn -0.08115337789058685 0.19120676815509796 0.97818928956985472
vn -0.15057136118412018 -0.01391192898154258 0.98850125074386592
vn -0.19426608085632324 -0.05070060864090919 0.97963780164718624
vn -0.23434320092201232 -0.0958346426486969 0.9674187302589416
vn -0.23990267515182496 -0.1304246336221695 0.96199595928192144
vn -0.37070405483245848 -0.13761556148529052 0.91849899291992192
vn -0.535510778427124 -0.1744256168603897 0.82631957530975344
vn -0.48713469505310056 -0.58946734666824344 0.64438182115554808
vn -0.73430353403091424 -0.38821721076965336 0.55685341358184816
vn 0.978492558002472 -0.00033988329232670367 0.20628201961517332
vn -0.86921185255050656 0.0007352780085057 -0.49443924427032472
vn -0.13231246173381806 0.98834639787673952 -0.0752641037106514
vn -0.00855464302003383 0.99991446733474736 -0.00989199895411729
vn -0.00880476273596286 0.99991500377655024 -0.00961128901690244
vn -0.00098386977333575 0.99999356269836432 -0.00344731798395514
vn 0.03157107532024383 0.99950146675109856 -0.00028210514574311674
vn 0.01270119473338127 0.99991810321807856 0.00153700821101665
vn 0.00755657628178596 0.99996960163116448 0.00191798154264688
vn -0.00735306553542614 0.99994117021560672 0.00798202864825725
vn -0.9264034032821656 -0.37122824788093568 -0.06297887861728668
vn -0.96536839008331296 -0.24789224565029144 -0.08132205903530121
vn -0.04107392206788063 -0.99815469980239872 0.04472233727574348
vn -0.35164880752563476 -0.93569833040237424 0.02849056757986545
vn -0.37354898452758792 -0.92721664905548096 0.02702435478568077
vn -0.52559655904769896 -0.85065269470214848 0.01175986137241125
vn -0.55317860841751096 -0.83301877975463872 0.00855467095971107
vn -0.80421024560928352 -0.59364134073257448 -0.02891442738473415
vn -0.97933799028396608 -0.01846428029239177 -0.20138528943061828
vn -0.9874346256256104 -0.1381409615278244 -0.07674658298492432
vn -0.98822396993637088 -0.13207133114337922 -0.07726893573999405
vn -0.99491089582443232 -0.04783930256962776 -0.08867742121219635
vn -0.99499475955963136 -0.04527899250388145 -0.08907987177371979
vn -0.96889257431030272 0.18325968086719512 0.16632236540317536
vn -0.9463667273521424 -0.00800840556621551 0.32299521565437316
vn -0.83446067571640016 -0.13036981225013732 0.53542411327362064
vn -0.85231870412826544 -0.19930864870548248 0.48355853557586672
vn -0.9751965403556824 -0.19593025743961336 0.10297086089849472
vn -0.88918077945709232 -0.45080342888832096 0.0783182829618454
vn -0.39499014616012576 0.91508769989013664 -0.08122346550226212
vn -0.31317579746246336 0.94943225383758544 -0.02234556525945663
vn -0.06093458831310272 0.9981263875961304 -0.00554280262440443
vn -0.02059630304574966 0.99977761507034304 -0.00451992405578494
vn -0.70613741874694824 0.70423257350921632 -0.07366540282964706
vn -0.01388067100197076 0.99989885091781616 -0.00312110409140586
vn -0.01214074622839689 0.99992579221725456 -0.0009574118303135
vn -0.05559796839952469 0.99845123291015632 0.00199664779938757
vn -0.46424841880798336 0.88509088754653936 0.03297720476984977
vn -0.48778975009918216 0.87210017442703248 0.03876356035470962
vn -0.52450537681579592 0.8497974276542664 0.05232973396778107
vn -0.98369705677032464 -0.17074726521968842 -0.05643971264362335
vn -0.97518187761306768 -0.22089716792106628 -0.01499468926340341
vn -0.98603421449661248 -0.15327836573123932 -0.0651329979300499
vn -0.79544621706008912 -0.6035592555999756 0.05460332334041595
vn -0.91141742467880256 -0.4108800292015076 0.02226688712835312
vn -0.93343019485473632 -0.3583175837993622 0.01779363490641117
vn -0.97603046894073488 -0.21736258268356324 0.01085738930851221
vn -0.97728008031845088 -0.2118612378835678 0.00619742972776293
vn -0.99728429317474368 0.01976606622338295 -0.07094567269086838
vn -0.99605369567871088 0.05918842554092407 -0.06613384932279587
vn -0.97310066223144528 0.22415438294410704 -0.05319591984152794
vn -0.9611021280288696 0.2706018090248108 -0.05529420077800751
vn -0.87824416160583504 0.47389084100723264 -0.06414531171321869
vn -0.99543589353561408 -0.03875314444303512 -0.08721029013395309
vn -0.99223518371582032 -0.10713447630405426 -0.06317845731973648
vn -0.9976224303245544 -0.03423793986439705 0.05980883911252022
vn -0.99771440029144288 0.02900310233235359 -0.06103153899312019
vn -0.76692414283752448 0.63683158159255984 0.07920190691947937
vn -0.98160445690155024 0.16521495580673218 0.09569058567285538
vn -0.99007797241210944 0.10580480843782424 0.09247078001499176
vn -0.993456482887268 0.06019113957881927 0.09706288576126098
vn -0.9767795205116272 -0.1882648468017578 0.10226500034332276
vn -0.97625708580017088 -0.19198100268840788 0.10032572597265244
vn 0.00481556495651602 -0.99888497591018672 0.04696525633335114
vn -0.9980702996253968 0.02875314839184284 -0.05503636598587036
vn 0.44216269254684448 -0.10678626596927642 0.8905553221702576
vn -0.00882412027567625 -0.99994033575057984 -0.00644271215423941
vn 0.46985018253326416 -0.13594771921634674 -0.87221503257751472
vn 0.67307108640670776 -0.0036758785136044 -0.73956865072250368
vn -0.9773938655853272 0.20968315005302428 -0.0270947478711605
vn 0.00511099584400653 0.9975780844688416 -0.06936869770288467
vn -0.9994456768035888 -0.00942874420434236 -0.03192563727498054
vn 0.18642143905162812 -0.98184931278228752 0.03491402044892311
vn 0.14286504685878754 -0.98771238327026368 0.06335394829511642
vn -0.42696967720985416 0.8999255299568176 0.08849213272333145
vn -0.02287197671830654 0.02116416580975055 0.99951428174972528
vn -0.99308294057846064 -0.0370030328631401 0.1114327386021614
vn 0.93086671829223632 -0.03111647814512253 0.36403128504753112
vn 0.06905956566333771 0.3415944278240204 -0.93730670213699344
vn 0.978050708770752 -0.00386749301105737 0.20833118259906768
vn -0.99837118387222288 -0.02530764415860176 0.05113301798701286
# 200 vertex normals

g obj_32652946
s 1
f 1//1 2//1 3//1
f 2//2 1//2 4//2
f 4//3 5//3 2//3
f 4//4 6//4 5//4
f 7//5 8//5 9//5
f 7//6 9//6 10//6
f 9//7 8//7 11//7
f 7//8 10//8 12//8
f 13//9 14//9 1//9
f 1//10 14//10 4//10
f 15//11 16//11 17//11
f 18//12 17//12 19//12
f 20//13 19//13 21//13
f 22//14 21//14 23//14
f 24//15 25//15 16//15
f 26//16 27//16 28//16
f 28//17 27//17 29//17
f 30//18 31//18 32//18
f 33//19 34//19 35//19
f 33//20 35//20 36//20
f 26//21 24//21 16//21
f 37//22 38//22 39//22
f 40//23 41//23 42//23
f 41//24 43//24 42//24
f 41//25 44//25 43//25
f 44//26 45//26 43//26
f 45//27 46//27 43//27
f 46//28 47//28 43//28
f 47//29 48//29 43//29
f 45//30 49//30 46//30
f 49//31 20//31 46//31
f 20//32 50//32 46//32
f 51//33 52//33 53//33
f 38//34 54//34 53//34
f 37//35 54//35 38//35
f 55//36 56//36 57//36
f 58//37 59//37 51//37
f 59//38 49//38 51//38
f 49//39 44//39 51//39
f 49//40 60//40 20//40
f 49//41 61//41 60//41
f 49//42 58//42 61//42
f 31//43 27//43 32//43
f 35//44 31//44 30//44
f 49//45 45//45 44//45
f 59//46 58//46 49//46
f 33//47 3//47 34//47
f 7//48 2//48 5//48
f 7//49 12//49 2//49
f 12//50 3//50 2//50
f 8//51 6//51 4//51
f 14//52 11//52 4//52
f 11//53 8//53 4//53
f 41//54 51//54 44//54
f 62//55 31//55 3//55
f 31//56 34//56 3//56
f 63//57 64//57 65//57
f 12//58 66//58 3//58
f 33//59 13//59 1//59
f 10//60 67//60 12//60
f 67//61 68//61 12//61
f 68//62 66//62 12//62
f 13//63 69//63 14//63
f 69//64 70//64 14//64
f 70//65 71//65 14//65
f 71//66 11//66 14//66
f 72//67 73//67 11//67
f 73//68 55//68 11//68
f 55//69 9//69 11//69
f 71//70 72//70 11//70
f 55//71 57//71 9//71
f 54//72 51//72 53//72
f 74//73 75//73 10//73
f 75//74 67//74 10//74
f 29//75 3//75 66//75
f 29//76 27//76 62//76
f 24//77 66//77 68//77
f 23//78 76//78 77//78
f 78//79 57//79 56//79
f 69//80 13//80 33//80
f 79//81 68//81 67//81
f 75//82 57//82 67//82
f 37//83 18//83 61//83
f 78//84 80//84 67//84
f 80//85 25//85 67//85
f 25//86 24//86 67//86
f 24//87 79//87 67//87
f 79//88 24//88 68//88
f 57//89 10//89 9//89
f 63//90 81//90 69//90
f 81//91 71//91 69//91
f 71//92 70//92 69//92
f 81//93 63//93 71//93
f 63//94 82//94 71//94
f 82//95 83//95 71//95
f 83//96 77//96 71//96
f 77//97 72//97 71//97
f 77//98 73//98 72//98
f 77//99 84//99 73//99
f 84//100 56//100 73//100
f 36//101 69//101 33//101
f 75//102 74//102 57//102
f 24//103 28//103 29//103
f 85//104 32//104 27//104
f 26//105 85//105 27//105
f 86//106 30//106 32//106
f 85//107 86//107 32//107
f 36//108 35//108 30//108
f 86//109 36//109 30//109
f 86//110 64//110 36//110
f 84//111 77//111 56//111
f 77//112 78//112 56//112
f 77//113 76//113 78//113
f 76//114 87//114 78//114
f 87//115 80//115 78//115
f 87//116 76//116 80//116
f 76//117 88//117 80//117
f 88//118 25//118 80//118
f 88//119 16//119 25//119
f 8//120 5//120 6//120
f 86//121 89//121 64//121
f 89//122 65//122 64//122
f 65//123 82//123 63//123
f 65//124 90//124 82//124
f 90//125 91//125 82//125
f 91//126 83//126 82//126
f 91//127 77//127 83//127
f 91//128 22//128 77//128
f 22//129 23//129 77//129
f 92//130 93//130 85//130
f 93//131 86//131 85//131
f 26//132 16//132 85//132
f 16//133 94//133 85//133
f 94//134 95//134 85//134
f 95//135 96//135 85//135
f 96//136 97//136 85//136
f 97//137 92//137 85//137
f 98//138 89//138 86//138
f 93//139 99//139 86//139
f 99//140 52//140 86//140
f 52//141 100//141 86//141
f 100//142 98//142 86//142
f 21//143 19//143 76//143
f 19//144 17//144 76//144
f 17//145 88//145 76//145
f 17//146 16//146 88//146
f 15//147 39//147 16//147
f 39//148 94//148 16//148
f 98//149 65//149 89//149
f 42//150 43//150 65//150
f 43//151 48//151 65//151
f 48//152 90//152 65//152
f 98//153 42//153 65//153
f 48//154 91//154 90//154
f 48//155 22//155 91//155
f 48//156 47//156 22//156
f 47//157 46//157 22//157
f 46//158 50//158 22//158
f 50//159 21//159 22//159
f 53//160 93//160 92//160
f 97//161 53//161 92//161
f 53//162 99//162 93//162
f 39//163 95//163 94//163
f 39//164 96//164 95//164
f 39//165 97//165 96//165
f 39//166 38//166 97//166
f 38//167 53//167 97//167
f 52//168 101//168 98//168
f 101//169 102//169 98//169
f 102//170 41//170 98//170
f 41//171 40//171 98//171
f 40//172 42//172 98//172
f 100//173 52//173 98//173
f 53//174 52//174 99//174
f 54//175 61//175 58//175
f 102//176 101//176 52//176
f 50//177 20//177 21//177
f 20//178 60//178 19//178
f 60//179 61//179 19//179
f 61//180 18//180 19//180
f 37//181 15//181 17//181
f 37//182 39//182 15//182
f 26//183 28//183 24//183
f 51//184 102//184 52//184
f 55//185 73//185 56//185
f 31//186 62//186 27//186
f 35//187 34//187 31//187
f 33//188 1//188 3//188
f 41//189 102//189 51//189
f 63//190 69//190 64//190
f 54//191 58//191 51//191
f 29//192 62//192 3//192
f 24//193 29//193 66//193
f 23//194 21//194 76//194
f 78//195 67//195 57//195
f 37//196 17//196 18//196
f 57//197 74//197 10//197
f 36//198 64//198 69//198
f 8//199 7//199 5//199
f 54//200 37//200 61//200
#200 polygons

